<?xml version="1.0" standalone="no"?>
<!DOCTYPE svg PUBLIC "-//W3C//DTD SVG 20010904//EN"
 "http://www.w3.org/TR/2001/REC-SVG-20010904/DTD/svg10.dtd">
<svg version="1.0" xmlns="http://www.w3.org/2000/svg"
 width="500.000000pt" height="500.000000pt" viewBox="0 0 500.000000 500.000000"
 preserveAspectRatio="xMidYMid meet">

<g transform="translate(0.000000,500.000000) scale(0.100000,-0.100000)"
fill="#000000" stroke="none">
<path d="M2444 4897 c-145 -38 -253 -161 -284 -327 -7 -36 -19 -72 -26 -80 -7
-8 -16 -38 -20 -67 -5 -42 -2 -60 16 -98 12 -26 29 -49 36 -52 8 -3 14 -13 14
-23 0 -40 83 -183 140 -241 77 -78 132 -103 230 -104 97 0 170 35 242 115 45
50 128 199 128 229 0 7 11 22 24 32 14 11 30 36 36 55 16 46 8 134 -13 149 -8
6 -21 40 -27 76 -25 140 -113 264 -225 315 -66 31 -194 40 -271 21z"/>
<path d="M2480 3775 l0 -75 75 0 75 0 0 75 0 75 -75 0 -75 0 0 -75z"/>
<path d="M2026 3710 l-170 -68 -128 -157 -128 -158 0 -383 0 -384 264 0 263 0
36 58 c42 68 117 141 175 171 128 65 295 66 421 2 60 -31 143 -113 176 -175
l30 -56 198 0 197 0 0 139 0 140 -70 82 c-66 79 -72 83 -108 81 -20 -1 -46 4
-58 11 -19 11 -92 93 -152 171 -51 66 -6 156 77 156 45 0 60 -11 138 -105 79
-95 86 -109 79 -158 -6 -42 -5 -45 68 -132 l75 -90 1 -147 0 -148 55 0 55 0 0
381 0 381 -123 151 c-68 84 -130 157 -138 163 -21 17 -359 148 -365 142 -2 -3
-77 -164 -165 -359 -87 -194 -163 -357 -168 -362 -4 -4 -72 135 -151 310 -174
387 -187 413 -203 412 -6 -1 -88 -32 -181 -69z"/>
<path d="M2466 3573 c-15 -217 -13 -238 39 -356 27 -59 52 -104 56 -100 4 4
28 54 54 110 l46 102 -7 166 -7 165 -87 0 -87 0 -7 -87z"/>
<path d="M2433 2766 c-144 -47 -242 -164 -274 -327 -7 -35 -18 -70 -25 -77
-17 -16 -28 -93 -20 -137 4 -20 20 -50 35 -68 16 -17 32 -43 36 -57 18 -61 84
-169 135 -220 193 -196 453 -116 575 176 16 38 42 84 57 102 15 18 31 44 34
58 10 38 -3 137 -19 149 -8 5 -21 42 -30 82 -22 100 -52 157 -113 220 -75 76
-143 105 -258 109 -59 3 -106 -1 -133 -10z"/>
<path d="M1410 2433 c80 -53 167 -180 190 -278 7 -27 22 -74 33 -102 l22 -53
254 0 c237 0 253 1 246 18 -4 9 -12 31 -17 47 -6 17 -19 39 -28 50 -57 65 -70
187 -31 269 12 23 21 48 21 54 0 9 -88 12 -357 11 -336 0 -356 -1 -333 -16z"/>
<path d="M3000 2436 c0 -8 9 -30 20 -48 44 -75 35 -199 -19 -261 -15 -17 -33
-45 -38 -62 -6 -16 -14 -38 -18 -47 -7 -17 8 -18 227 -18 l235 0 21 48 c11 26
24 65 27 87 15 95 94 217 185 287 l35 27 -337 1 c-288 0 -338 -2 -338 -14z"/>
<path d="M1057 2430 c-83 -21 -152 -70 -208 -149 -41 -57 -79 -160 -79 -213 0
-18 -7 -36 -17 -43 -13 -9 -18 -31 -21 -81 -3 -62 -1 -73 22 -104 14 -19 31
-46 37 -60 85 -185 144 -262 241 -315 45 -25 64 -29 128 -30 63 0 84 5 130 28
96 49 171 138 222 260 17 40 41 84 55 98 13 15 28 42 32 61 10 44 -2 128 -20
142 -8 6 -20 40 -26 76 -23 138 -99 247 -210 302 -58 28 -77 33 -157 35 -50 1
-108 -2 -129 -7z"/>
<path d="M3787 2430 c-83 -21 -158 -76 -212 -155 -37 -53 -75 -156 -75 -203 0
-14 -7 -33 -15 -42 -19 -21 -30 -97 -21 -144 4 -20 19 -51 35 -69 15 -17 36
-54 46 -82 46 -125 139 -235 233 -278 65 -29 169 -30 234 0 93 43 193 160 238
282 12 31 31 65 42 75 11 10 27 35 35 54 20 48 10 138 -18 155 -12 8 -19 23
-19 44 0 48 -34 147 -70 203 -39 61 -99 112 -166 141 -55 25 -202 35 -267 19z"/>
<path d="M2027 1657 l-177 -72 -80 -97 c-44 -53 -80 -100 -80 -105 0 -4 48
-27 108 -50 l107 -43 143 -174 142 -175 0 -215 0 -216 350 0 350 0 0 221 0
220 138 169 137 169 122 48 c68 26 123 50 123 53 0 3 -36 48 -79 100 l-78 95
-182 73 -182 72 -342 -1 -342 -1 -178 -71z"/>
<path d="M652 1316 c-101 -40 -189 -79 -197 -87 -7 -8 -65 -78 -129 -157
l-116 -143 0 -385 0 -384 958 2 957 3 2 380 3 380 -128 157 -127 157 -190 76
-190 75 -330 0 -330 0 -183 -74z"/>
<path d="M3385 1316 l-179 -72 -127 -154 -127 -154 -7 -71 c-3 -38 -3 -212 0
-385 l7 -315 956 0 957 0 3 376 2 377 -84 103 c-199 246 -157 212 -366 295
l-184 74 -336 -1 -335 -1 -180 -72z"/>
</g>
</svg>
