<?xml version="1.0" standalone="no"?>
<!DOCTYPE svg PUBLIC "-//W3C//DTD SVG 20010904//EN"
 "http://www.w3.org/TR/2001/REC-SVG-20010904/DTD/svg10.dtd">
<svg version="1.0" xmlns="http://www.w3.org/2000/svg"
 width="500.000000pt" height="500.000000pt" viewBox="0 0 500.000000 500.000000"
 preserveAspectRatio="xMidYMid meet">

<g transform="translate(0.000000,500.000000) scale(0.100000,-0.100000)"
fill="#000000" stroke="none">
<path d="M1100 4814 c-50 -22 -89 -61 -116 -119 -23 -48 -24 -59 -24 -287 l0
-238 43 0 c53 0 145 -23 197 -50 l40 -20 0 205 c0 123 4 214 10 226 11 19 39
19 1585 19 1546 0 1574 0 1585 -19 7 -13 10 -332 10 -963 0 -800 -2 -947 -14
-964 -14 -19 -42 -19 -1455 -22 l-1442 -2 3 -138 3 -137 1505 0 1505 0 40 22
c47 25 85 64 111 113 18 34 19 81 19 1125 l0 1090 -23 47 c-26 52 -78 98 -131
116 -25 9 -471 12 -1725 12 -1488 -1 -1695 -3 -1726 -16z"/>
<path d="M1335 4428 c-4 -18 -5 -121 -3 -228 3 -192 3 -196 30 -235 42 -63 61
-145 56 -239 -6 -97 -33 -167 -95 -243 l-43 -53 537 0 c581 -1 578 -1 649 -55
77 -59 107 -192 63 -282 -25 -53 -86 -106 -138 -121 -26 -8 -168 -12 -455 -12
l-416 0 0 -140 0 -140 1405 0 1405 0 0 890 0 890 -1495 0 -1494 0 -6 -32z
m2607 -265 c25 -22 23 -49 -5 -68 -21 -14 -148 -15 -1116 -13 -958 3 -1093 5
-1101 18 -14 22 -12 47 6 64 14 14 128 16 1106 16 1002 0 1093 -1 1110 -17z
m8 -382 c14 -27 13 -37 -6 -55 -14 -14 -129 -16 -1113 -16 -840 0 -1100 3
-1109 12 -7 7 -12 21 -12 33 0 12 5 26 12 33 9 9 270 12 1115 12 1080 0 1103
0 1113 -19z m20 -372 c9 -16 8 -26 -5 -45 l-15 -24 -538 0 c-405 0 -541 3
-550 12 -13 13 -16 60 -5 71 3 4 253 7 554 7 544 0 548 0 559 -21z m-6 -381
c13 -19 14 -25 2 -43 -13 -20 -22 -20 -551 -23 -389 -1 -542 1 -551 9 -17 14
-18 51 -2 67 9 9 145 12 549 12 l538 0 15 -22z"/>
<path d="M896 4054 c-123 -45 -210 -167 -210 -294 0 -98 26 -163 93 -231 96
-97 222 -125 343 -75 86 35 133 78 170 154 29 59 33 76 32 147 0 67 -5 89 -29
138 -34 68 -87 120 -159 153 -60 28 -175 32 -240 8z"/>
<path d="M570 3307 c-36 -12 -87 -35 -115 -51 -111 -66 -211 -210 -234 -340
-7 -37 -11 -234 -11 -511 0 -368 3 -461 15 -501 27 -91 128 -164 226 -164 l39
0 0 496 c0 322 4 502 10 515 16 30 68 26 80 -7 6 -15 10 -221 10 -515 l0 -489
420 0 420 0 0 643 c0 487 3 646 12 655 9 9 123 12 453 12 408 0 443 2 481 19
94 43 110 153 33 227 l-30 29 -872 2 -872 3 -65 -23z"/>
<path d="M590 995 l0 -655 185 0 185 0 0 655 0 655 -185 0 -185 0 0 -655z"/>
<path d="M1057 1643 c-4 -3 -7 -298 -7 -655 l0 -648 190 0 190 0 0 655 0 655
-183 0 c-101 0 -187 -3 -190 -7z"/>
<path d="M2370 1537 c-54 -17 -133 -102 -149 -160 -41 -145 45 -288 191 -319
103 -21 218 37 271 136 33 62 30 167 -6 228 -64 109 -184 154 -307 115z"/>
<path d="M3863 1533 c-56 -19 -126 -97 -143 -158 -53 -190 118 -365 305 -310
186 54 243 278 106 415 -69 69 -169 89 -268 53z"/>
<path d="M2382 950 c-81 -12 -191 -69 -254 -133 -96 -96 -138 -214 -138 -389
l0 -88 470 0 470 0 0 88 c0 48 -7 117 -15 155 -40 188 -195 336 -385 366 -71
12 -72 12 -148 1z"/>
<path d="M3885 950 c-151 -23 -290 -128 -350 -265 -32 -72 -45 -143 -45 -250
l0 -95 470 0 470 0 0 88 c-1 169 -41 282 -137 383 -104 110 -259 162 -408 139z"/>
</g>
</svg>
