<?xml version="1.0" standalone="no"?>
<!DOCTYPE svg PUBLIC "-//W3C//DTD SVG 20010904//EN"
 "http://www.w3.org/TR/2001/REC-SVG-20010904/DTD/svg10.dtd">
<svg version="1.0" xmlns="http://www.w3.org/2000/svg"
 width="500.000000pt" height="500.000000pt" viewBox="0 0 500.000000 500.000000"
 preserveAspectRatio="xMidYMid meet">

<g transform="translate(0.000000,500.000000) scale(0.100000,-0.100000)"
fill="#000000" stroke="none">
<path d="M3015 4734 c-209 -47 -377 -163 -458 -319 -30 -57 -32 -66 -32 -170
0 -104 2 -114 33 -179 65 -138 234 -262 427 -313 87 -23 314 -25 422 -4 l72
14 89 -36 c48 -21 91 -37 95 -37 4 0 7 37 7 81 l0 82 73 72 c49 49 85 95 108
142 32 64 34 74 34 168 0 92 -3 106 -32 167 -17 37 -47 86 -65 109 -69 86
-202 167 -348 211 -90 28 -326 34 -425 12z"/>
<path d="M510 3793 c-27 -10 -67 -38 -102 -73 -45 -45 -60 -69 -74 -115 -41
-144 21 -286 156 -356 67 -35 186 -34 256 3 64 34 128 105 148 165 49 142 -21
307 -154 366 -61 27 -170 32 -230 10z"/>
<path d="M4177 3796 c-129 -48 -199 -147 -199 -281 0 -159 114 -282 271 -292
122 -9 222 47 280 156 28 53 32 71 32 134 1 117 -51 207 -152 261 -64 35 -170
45 -232 22z"/>
<path d="M3180 3362 c-41 -22 -80 -84 -80 -126 0 -63 34 -107 142 -181 56 -38
172 -119 257 -178 86 -60 163 -112 171 -117 8 -4 70 -22 138 -40 l122 -33 -2
-391 -3 -391 -205 -5 c-195 -5 -207 -6 -244 -29 -24 -15 -45 -40 -57 -65 -17
-38 -19 -75 -19 -546 0 -568 -1 -558 76 -616 32 -25 47 -29 99 -29 49 0 69 5
97 25 75 50 72 36 78 505 l5 420 375 5 c428 6 425 5 468 90 22 44 22 50 22
410 0 201 -5 474 -10 607 -9 236 -10 244 -37 300 -35 72 -108 147 -171 176
-36 17 -66 22 -132 22 -75 0 -91 -3 -138 -29 -51 -28 -93 -68 -137 -131 l-21
-28 -84 22 c-77 21 -102 35 -255 141 -335 231 -321 223 -373 227 -34 3 -57 -1
-82 -15z"/>
<path d="M519 3167 c-88 -33 -168 -107 -211 -195 -29 -61 -36 -211 -37 -828
l-1 -461 23 -34 c12 -18 38 -44 56 -56 34 -23 36 -23 395 -23 199 0 366 -4
373 -8 9 -6 13 -111 15 -418 l3 -410 28 -43 c71 -107 229 -105 292 3 l25 43 0
522 c0 584 3 557 -72 611 l-41 30 -204 0 c-187 0 -203 1 -203 18 -2 103 1 577
4 579 2 2 39 -9 82 -25 l79 -29 315 -6 c296 -6 318 -5 357 13 109 49 112 201
5 263 -29 17 -61 20 -325 25 -279 5 -295 6 -357 29 -36 14 -88 34 -116 44 -50
19 -52 22 -58 64 -16 104 -104 223 -201 273 -61 30 -170 40 -226 19z"/>
<path d="M1610 2315 l0 -105 425 0 425 0 2 -797 3 -798 95 0 95 0 3 798 2 797
425 0 425 0 0 105 0 105 -950 0 -950 0 0 -105z"/>
</g>
</svg>
