<?xml version="1.0" standalone="no"?>
<!DOCTYPE svg PUBLIC "-//W3C//DTD SVG 20010904//EN"
 "http://www.w3.org/TR/2001/REC-SVG-20010904/DTD/svg10.dtd">
<svg version="1.0" xmlns="http://www.w3.org/2000/svg"
 width="500.000000pt" height="500.000000pt" viewBox="0 0 500.000000 500.000000"
 preserveAspectRatio="xMidYMid meet">

<g transform="translate(0.000000,500.000000) scale(0.100000,-0.100000)"
fill="#000000" stroke="none">
<path d="M2000 4853 c-19 -1 -84 -8 -145 -13 -448 -43 -849 -168 -1202 -375
-154 -91 -202 -128 -223 -172 -21 -41 -21 -46 -17 -1155 4 -1223 2 -1183 67
-1434 151 -585 553 -1083 1084 -1344 206 -101 375 -156 601 -196 142 -26 528
-26 670 0 377 67 696 210 986 444 106 85 272 260 357 377 205 280 327 572 389
930 15 90 17 216 20 1215 4 1002 2 1119 -12 1157 -13 33 -30 51 -83 86 -235
156 -444 259 -687 337 -371 118 -659 151 -1325 148 -245 -1 -461 -3 -480 -5z
m1155 -307 c404 -47 773 -167 1070 -349 l70 -42 0 -1040 c0 -947 -2 -1050 -18
-1150 -83 -515 -356 -945 -782 -1230 -464 -311 -1039 -388 -1570 -210 -298
100 -590 298 -790 536 -225 268 -355 556 -411 909 -15 94 -16 217 -14 1144 1
959 3 1041 18 1052 9 7 64 39 122 72 248 140 522 234 821 281 107 18 188 26
419 45 25 2 245 2 490 1 317 -3 482 -8 575 -19z"/>
<path d="M2355 3610 c-143 -31 -265 -98 -365 -200 -150 -152 -220 -328 -220
-555 l0 -93 -47 -7 c-27 -3 -63 -16 -80 -28 -65 -43 -63 -26 -63 -664 0 -559
1 -579 20 -611 11 -18 34 -41 52 -52 32 -19 52 -20 848 -20 796 0 816 1 848
20 18 11 41 34 52 52 19 32 20 52 20 616 0 642 2 621 -62 660 -18 11 -54 23
-79 27 l-46 7 -6 126 c-7 153 -23 217 -83 341 -80 162 -231 293 -414 357 -63
22 -96 27 -205 30 -71 1 -148 -1 -170 -6z m304 -309 c93 -37 186 -123 233
-215 28 -54 48 -158 48 -249 l0 -77 -437 2 -438 3 -3 44 c-6 86 16 213 49 277
54 108 161 196 278 230 67 19 203 12 270 -15z"/>
</g>
</svg>
